<mxfile host="app.diagrams.net" agent="Mozilla/5.0 (Windows NT 10.0; Win64; x64) AppleWebKit/537.36 (KHTML, like Gecko) Chrome/131.0.0.0 Safari/537.36 Edg/131.0.0.0" version="25.0.3">
  <diagram id="C5RBs43oDa-KdzZeNtuy" name="Page-1">
    <mxGraphModel dx="996" dy="567" grid="1" gridSize="10" guides="1" tooltips="1" connect="1" arrows="1" fold="1" page="1" pageScale="1" pageWidth="827" pageHeight="1169" math="0" shadow="0">
      <root>
        <mxCell id="WIyWlLk6GJQsqaUBKTNV-0" />
        <mxCell id="WIyWlLk6GJQsqaUBKTNV-1" parent="WIyWlLk6GJQsqaUBKTNV-0" />
        <mxCell id="P_T37lrUQe3cxXNVHMyg-3" value="" style="edgeStyle=orthogonalEdgeStyle;rounded=0;orthogonalLoop=1;jettySize=auto;html=1;" edge="1" parent="WIyWlLk6GJQsqaUBKTNV-1" source="P_T37lrUQe3cxXNVHMyg-0" target="P_T37lrUQe3cxXNVHMyg-2">
          <mxGeometry relative="1" as="geometry" />
        </mxCell>
        <mxCell id="P_T37lrUQe3cxXNVHMyg-0" value="Start" style="ellipse;whiteSpace=wrap;html=1;" vertex="1" parent="WIyWlLk6GJQsqaUBKTNV-1">
          <mxGeometry x="354" y="10" width="120" height="80" as="geometry" />
        </mxCell>
        <mxCell id="P_T37lrUQe3cxXNVHMyg-1" value="Stop" style="ellipse;whiteSpace=wrap;html=1;" vertex="1" parent="WIyWlLk6GJQsqaUBKTNV-1">
          <mxGeometry x="354" y="505" width="120" height="80" as="geometry" />
        </mxCell>
        <mxCell id="P_T37lrUQe3cxXNVHMyg-5" value="" style="edgeStyle=orthogonalEdgeStyle;rounded=0;orthogonalLoop=1;jettySize=auto;html=1;" edge="1" parent="WIyWlLk6GJQsqaUBKTNV-1" source="P_T37lrUQe3cxXNVHMyg-2" target="P_T37lrUQe3cxXNVHMyg-4">
          <mxGeometry relative="1" as="geometry" />
        </mxCell>
        <mxCell id="P_T37lrUQe3cxXNVHMyg-2" value="Nhập điểm" style="shape=parallelogram;perimeter=parallelogramPerimeter;whiteSpace=wrap;html=1;fixedSize=1;" vertex="1" parent="WIyWlLk6GJQsqaUBKTNV-1">
          <mxGeometry x="354" y="140" width="120" height="60" as="geometry" />
        </mxCell>
        <mxCell id="P_T37lrUQe3cxXNVHMyg-4" value="Điểm &amp;gt; 5?" style="rhombus;whiteSpace=wrap;html=1;" vertex="1" parent="WIyWlLk6GJQsqaUBKTNV-1">
          <mxGeometry x="326" y="250" width="176" height="80" as="geometry" />
        </mxCell>
        <mxCell id="P_T37lrUQe3cxXNVHMyg-11" style="edgeStyle=orthogonalEdgeStyle;rounded=0;orthogonalLoop=1;jettySize=auto;html=1;exitX=0.5;exitY=1;exitDx=0;exitDy=0;exitPerimeter=0;entryX=0;entryY=0.5;entryDx=0;entryDy=0;" edge="1" parent="WIyWlLk6GJQsqaUBKTNV-1" source="P_T37lrUQe3cxXNVHMyg-6" target="P_T37lrUQe3cxXNVHMyg-1">
          <mxGeometry relative="1" as="geometry" />
        </mxCell>
        <mxCell id="P_T37lrUQe3cxXNVHMyg-6" value="Không Đạt" style="strokeWidth=2;html=1;shape=mxgraph.flowchart.display;whiteSpace=wrap;" vertex="1" parent="WIyWlLk6GJQsqaUBKTNV-1">
          <mxGeometry x="210" y="390" width="100" height="60" as="geometry" />
        </mxCell>
        <mxCell id="P_T37lrUQe3cxXNVHMyg-10" style="edgeStyle=orthogonalEdgeStyle;rounded=0;orthogonalLoop=1;jettySize=auto;html=1;exitX=0.5;exitY=1;exitDx=0;exitDy=0;exitPerimeter=0;entryX=1;entryY=0.5;entryDx=0;entryDy=0;" edge="1" parent="WIyWlLk6GJQsqaUBKTNV-1" source="P_T37lrUQe3cxXNVHMyg-7" target="P_T37lrUQe3cxXNVHMyg-1">
          <mxGeometry relative="1" as="geometry" />
        </mxCell>
        <mxCell id="P_T37lrUQe3cxXNVHMyg-7" value="Đạt" style="strokeWidth=2;html=1;shape=mxgraph.flowchart.display;whiteSpace=wrap;" vertex="1" parent="WIyWlLk6GJQsqaUBKTNV-1">
          <mxGeometry x="520" y="390" width="100" height="60" as="geometry" />
        </mxCell>
        <mxCell id="P_T37lrUQe3cxXNVHMyg-8" style="edgeStyle=orthogonalEdgeStyle;rounded=0;orthogonalLoop=1;jettySize=auto;html=1;exitX=0;exitY=0.5;exitDx=0;exitDy=0;entryX=0.5;entryY=0;entryDx=0;entryDy=0;entryPerimeter=0;" edge="1" parent="WIyWlLk6GJQsqaUBKTNV-1" source="P_T37lrUQe3cxXNVHMyg-4" target="P_T37lrUQe3cxXNVHMyg-6">
          <mxGeometry relative="1" as="geometry" />
        </mxCell>
        <mxCell id="P_T37lrUQe3cxXNVHMyg-9" style="edgeStyle=orthogonalEdgeStyle;rounded=0;orthogonalLoop=1;jettySize=auto;html=1;exitX=1;exitY=0.5;exitDx=0;exitDy=0;entryX=0.5;entryY=0;entryDx=0;entryDy=0;entryPerimeter=0;" edge="1" parent="WIyWlLk6GJQsqaUBKTNV-1" source="P_T37lrUQe3cxXNVHMyg-4" target="P_T37lrUQe3cxXNVHMyg-7">
          <mxGeometry relative="1" as="geometry" />
        </mxCell>
        <mxCell id="P_T37lrUQe3cxXNVHMyg-12" value="Sai" style="text;html=1;align=center;verticalAlign=middle;whiteSpace=wrap;rounded=0;" vertex="1" parent="WIyWlLk6GJQsqaUBKTNV-1">
          <mxGeometry x="250" y="250" width="60" height="30" as="geometry" />
        </mxCell>
        <mxCell id="P_T37lrUQe3cxXNVHMyg-13" value="Đúng" style="text;html=1;align=center;verticalAlign=middle;whiteSpace=wrap;rounded=0;" vertex="1" parent="WIyWlLk6GJQsqaUBKTNV-1">
          <mxGeometry x="502" y="250" width="60" height="30" as="geometry" />
        </mxCell>
      </root>
    </mxGraphModel>
  </diagram>
</mxfile>
